<?xml version="1.0" encoding="utf-8"?>
<!-- Svg Vector Icons : http://www.onlinewebfonts.com/icon -->
<!DOCTYPE svg PUBLIC "-//W3C//DTD SVG 1.1//EN" "http://www.w3.org/Graphics/SVG/1.1/DTD/svg11.dtd">
<svg version="1.1" xmlns="http://www.w3.org/2000/svg" xmlns:xlink="http://www.w3.org/1999/xlink" x="0px" y="0px" viewBox="0 0 1000 1000" enable-background="new 0 0 1000 1000" xml:space="preserve">
<metadata> Svg Vector Icons : http://www.onlinewebfonts.com/icon </metadata>
<g><g transform="translate(0.000000,502.000000) scale(0.100000,-0.100000)"><path d="M4481.6,4914C3398,4824,2637.1,4644,1977.9,4319.3c-369.7-181.9-553.6-307.1-762.9-518.4c-189.7-191.7-277.8-324.7-359.9-534l-50.9-131.1V16v-3119.9l45-117.4c289.5-764.8,1373.2-1357.5,2869.5-1572.7c467.5-66.5,745.3-86.1,1281.2-86.1c285.6,0,627.9,11.7,762.9,23.5C7566.3-4684.4,8826-4078,9150.7-3221.3l45,117.4V16v3119.9l-50.8,131.1c-82.2,209.3-170.2,342.3-359.9,534c-209.3,211.2-393.2,336.4-762.9,518.4c-567.3,279.7-1267.5,465.5-2102.8,557.5C5649.4,4908.1,4698.8,4931.6,4481.6,4914z M5469.5,4505.1c1517.9-52.8,2920.4-606.4,3252.9-1281.2c56.7-113.4,62.6-142.8,62.6-303.2c0-148.7-7.8-193.6-50.8-283.6c-127.1-269.9-422.5-522.3-868.5-743.3c-530.1-260.2-1120.8-422.5-1922.8-522.3c-381.4-48.9-1504.2-48.9-1885.6,0c-802,99.8-1392.7,262.1-1922.8,522.3c-446,221-741.3,473.4-868.5,743.3c-43,90-50.9,135-50.9,283.6c0,160.4,5.9,189.7,62.6,303.2C1618,3916.4,2997,4446.5,4628.3,4513c187.8,7.8,391.2,11.7,449.9,7.8C5136.9,4518.8,5313,4511,5469.5,4505.1z M1637.5,1708C2955.9,890.4,5356,679.1,7227.9,1219c588.8,168.2,1097.3,420.6,1445.5,714l140.8,119.3V1528c-2-618.1-13.7-743.3-95.9-917.4c-72.4-154.5-309.1-401-510.5-534c-279.7-183.9-745.3-381.4-1173.6-500.8c-1236.2-340.4-2832.4-340.4-4068.6,0c-428.4,119.3-893.9,316.9-1173.6,500.8c-201.5,133-438.2,379.5-510.5,534c-82.1,174.1-93.9,299.3-95.8,917.4v524.2l142.8-119.3C1404.8,1866.4,1545.6,1766.7,1637.5,1708z M1256.1-5.5c54.8-60.7,313-254.3,447.9-334.5c588.8-350.1,1437.7-594.6,2445.1-704.2c311-33.2,1390.7-33.2,1701.8,0C6858.2-934.6,7707.2-690.1,8295.9-340c135,80.2,393.2,273.8,447.9,334.5c21.5,21.5,45,41.1,54.8,41.1c21.5,0,19.6-983.9-2-1169.7c-82.1-712-1226.4-1306.6-2887.1-1504.2c-414.7-48.9-1404.4-48.9-1819.1,0c-1648.9,195.6-2795.2,788.3-2885.2,1492.5c-23.5,172.1-25.4,1181.5-3.9,1181.5C1211.1,35.6,1234.6,16,1256.1-5.5z M1412.6-2141.5c637.7-518.4,1862.2-874.4,3190.3-931.1c1441.6-58.7,2810.9,209.3,3673.5,721.8c172.1,103.7,246.5,156.5,481.2,350.1l56.7,46.9v-447.9c0-246.5-7.8-498.8-19.6-561.4c-58.7-359.9-363.8-672.9-929.1-952.6c-528.1-260.1-1103.2-416.6-1916.9-522.3c-393.2-48.9-1504.2-48.9-1897.4,0c-813.7,105.6-1388.8,262.1-1916.9,522.3c-565.3,279.7-870.4,592.7-929.1,952.6c-11.7,62.6-19.6,314.9-19.6,561.4v447.9l56.7-46.9C1273.7-2026.1,1350-2088.7,1412.6-2141.5z"/></g></g>
</svg>